<svg width="260" height="30" viewBox="0 0 260 30" fill="none" xmlns="http://www.w3.org/2000/svg">
<path d="M0.375 20.1H0.9C1.25 20.1 1.5 20.0167 1.65 19.85C1.81667 19.6833 1.9 19.4333 1.9 19.1V10.675C1.9 10.0583 1.56667 9.75 0.9 9.75H0.375V6.825H10.1C11.5333 6.825 12.6667 7.20833 13.5 7.975C14.3333 8.725 14.75 9.83333 14.75 11.3C14.75 12 14.55 12.6667 14.15 13.3C13.75 13.9167 13.2 14.4167 12.5 14.8C13.3167 15.1667 13.9333 15.6333 14.35 16.2C14.7667 16.75 14.975 17.4833 14.975 18.4C14.975 19.8333 14.5417 20.9583 13.675 21.775C12.8083 22.5917 11.6667 23 10.25 23H0.375V20.1ZM8.45 13.425C8.91667 13.425 9.31667 13.275 9.65 12.975C10 12.6583 10.175 12.1917 10.175 11.575C10.175 11.0083 10.0167 10.5583 9.7 10.225C9.38333 9.89167 8.95833 9.725 8.425 9.725H6.525V13.425H8.45ZM8.6 20.1C9.13333 20.1 9.56667 19.95 9.9 19.65C10.25 19.3333 10.425 18.85 10.425 18.2C10.425 17.5333 10.2333 17.0667 9.85 16.8C9.48333 16.5333 9.04167 16.4 8.525 16.4H6.525V20.1H8.6ZM21.9314 23.375C20.4481 23.375 19.3314 23.075 18.5814 22.475C17.8481 21.8583 17.4814 21.0083 17.4814 19.925C17.4814 18.675 17.8981 17.7417 18.7314 17.125C19.5814 16.4917 20.8398 16.1167 22.5064 16L24.7064 15.85V14.525C24.7064 13.7917 24.3231 13.425 23.5564 13.425C23.1231 13.425 22.7481 13.5917 22.4314 13.925V14.75H18.5814V12.1C20.1648 11.1167 21.9064 10.625 23.8064 10.625C25.6564 10.625 27.0481 11.025 27.9814 11.825C28.9148 12.625 29.3814 13.6917 29.3814 15.025V19.325C29.3814 19.9083 29.6481 20.2 30.1814 20.2H30.4814V23H26.9064L26.5314 21.325C25.8981 22.075 25.2481 22.6083 24.5814 22.925C23.9148 23.225 23.0314 23.375 21.9314 23.375ZM22.9814 20.575C24.1314 20.575 24.7064 20.0583 24.7064 19.025V18.175L23.0314 18.325C22.1314 18.3917 21.6814 18.7833 21.6814 19.5C21.6814 19.8333 21.7898 20.1 22.0064 20.3C22.2398 20.4833 22.5648 20.575 22.9814 20.575ZM32.9883 20.05H33.2383C33.9383 20.05 34.2883 19.7333 34.2883 19.1V14.95C34.2883 14.3167 33.9633 14 33.3133 14H32.9883V11H37.1883L37.3633 12.6C38.4466 11.2833 39.9799 10.625 41.9633 10.625C43.4633 10.625 44.5633 10.9917 45.2633 11.725C45.9633 12.4417 46.3133 13.4917 46.3133 14.875V19.1C46.3133 19.7333 46.6549 20.05 47.3383 20.05H47.8133V23H41.6133V14.9C41.6133 14.3833 41.5049 14.0083 41.2883 13.775C41.0716 13.5417 40.7466 13.425 40.3133 13.425C39.8466 13.425 39.5049 13.5417 39.2883 13.775C39.0716 13.9917 38.9633 14.3667 38.9633 14.9V19.1C38.9633 19.4167 39.0216 19.6583 39.1383 19.825C39.2716 19.975 39.4966 20.05 39.8133 20.05H40.1383V23H32.9883V20.05ZM57.9203 28C56.687 28 55.637 27.8417 54.7703 27.525C53.9203 27.225 53.1536 26.775 52.4703 26.175V24.25H56.2953V24.925C56.6786 25.2417 57.2036 25.4 57.8703 25.4C58.387 25.4 58.762 25.25 58.9953 24.95C59.2286 24.65 59.3453 24.25 59.3453 23.75V21.95C58.862 22.3167 58.362 22.5833 57.8453 22.75C57.3286 22.9167 56.7036 23 55.9703 23C54.137 23 52.737 22.4917 51.7703 21.475C50.8036 20.4583 50.3203 18.9 50.3203 16.8C50.3203 14.8333 50.837 13.3167 51.8703 12.25C52.9203 11.1667 54.3036 10.625 56.0203 10.625C57.037 10.625 57.862 10.7833 58.4953 11.1C59.1453 11.4167 59.712 11.925 60.1953 12.625L60.3953 11H64.4453V13.875H64.1953C63.8786 13.875 63.662 13.9583 63.5453 14.125C63.4286 14.2917 63.3703 14.5583 63.3703 14.925V22.875C63.3703 24.4417 62.8953 25.6833 61.9453 26.6C61.012 27.5333 59.6703 28 57.9203 28ZM57.0203 20.35C57.7536 20.35 58.2703 20.0833 58.5703 19.55C58.887 19 59.0453 18.225 59.0453 17.225V16.45C59.0453 15.5 58.887 14.725 58.5703 14.125C58.2703 13.525 57.7536 13.225 57.0203 13.225C56.2036 13.225 55.6453 13.4917 55.3453 14.025C55.062 14.5583 54.9203 15.4833 54.9203 16.8C54.9203 17.6833 54.9786 18.3833 55.0953 18.9C55.212 19.4 55.4203 19.7667 55.7203 20C56.0203 20.2333 56.4536 20.35 57.0203 20.35ZM66.9443 20.1H67.4693C67.8193 20.1 68.0693 20.0167 68.2193 19.85C68.386 19.6833 68.4693 19.4333 68.4693 19.1V10.675C68.4693 10.0583 68.136 9.75 67.4693 9.75H66.9443V6.825H76.6693C78.1027 6.825 79.236 7.20833 80.0693 7.975C80.9027 8.725 81.3193 9.83333 81.3193 11.3C81.3193 12 81.1193 12.6667 80.7193 13.3C80.3193 13.9167 79.7693 14.4167 79.0693 14.8C79.886 15.1667 80.5027 15.6333 80.9193 16.2C81.336 16.75 81.5443 17.4833 81.5443 18.4C81.5443 19.8333 81.111 20.9583 80.2443 21.775C79.3777 22.5917 78.236 23 76.8193 23H66.9443V20.1ZM75.0193 13.425C75.486 13.425 75.886 13.275 76.2193 12.975C76.5693 12.6583 76.7443 12.1917 76.7443 11.575C76.7443 11.0083 76.586 10.5583 76.2693 10.225C75.9527 9.89167 75.5277 9.725 74.9943 9.725H73.0943V13.425H75.0193ZM75.1693 20.1C75.7027 20.1 76.136 19.95 76.4693 19.65C76.8193 19.3333 76.9943 18.85 76.9943 18.2C76.9943 17.5333 76.8027 17.0667 76.4193 16.8C76.0527 16.5333 75.611 16.4 75.0943 16.4H73.0943V20.1H75.1693ZM88.5008 23.375C87.0174 23.375 85.9008 23.075 85.1508 22.475C84.4174 21.8583 84.0508 21.0083 84.0508 19.925C84.0508 18.675 84.4674 17.7417 85.3008 17.125C86.1508 16.4917 87.4091 16.1167 89.0758 16L91.2758 15.85V14.525C91.2758 13.7917 90.8924 13.425 90.1258 13.425C89.6924 13.425 89.3174 13.5917 89.0008 13.925V14.75H85.1508V12.1C86.7341 11.1167 88.4758 10.625 90.3758 10.625C92.2258 10.625 93.6174 11.025 94.5508 11.825C95.4841 12.625 95.9508 13.6917 95.9508 15.025V19.325C95.9508 19.9083 96.2174 20.2 96.7508 20.2H97.0508V23H93.4758L93.1008 21.325C92.4674 22.075 91.8174 22.6083 91.1508 22.925C90.4841 23.225 89.6008 23.375 88.5008 23.375ZM89.5508 20.575C90.7008 20.575 91.2758 20.0583 91.2758 19.025V18.175L89.6008 18.325C88.7008 18.3917 88.2508 18.7833 88.2508 19.5C88.2508 19.8333 88.3591 20.1 88.5758 20.3C88.8091 20.4833 89.1341 20.575 89.5508 20.575ZM99.5576 20.05H99.8076C100.508 20.05 100.858 19.7333 100.858 19.1V14.95C100.858 14.3167 100.533 14 99.8826 14H99.5576V11H103.758L103.933 12.6C105.016 11.2833 106.549 10.625 108.533 10.625C110.033 10.625 111.133 10.9917 111.833 11.725C112.533 12.4417 112.883 13.4917 112.883 14.875V19.1C112.883 19.7333 113.224 20.05 113.908 20.05H114.383V23H108.183V14.9C108.183 14.3833 108.074 14.0083 107.858 13.775C107.641 13.5417 107.316 13.425 106.883 13.425C106.416 13.425 106.074 13.5417 105.858 13.775C105.641 13.9917 105.533 14.3667 105.533 14.9V19.1C105.533 19.4167 105.591 19.6583 105.708 19.825C105.841 19.975 106.066 20.05 106.383 20.05H106.708V23H99.5576V20.05ZM124.49 28C123.256 28 122.206 27.8417 121.34 27.525C120.49 27.225 119.723 26.775 119.04 26.175V24.25H122.865V24.925C123.248 25.2417 123.773 25.4 124.44 25.4C124.956 25.4 125.331 25.25 125.565 24.95C125.798 24.65 125.915 24.25 125.915 23.75V21.95C125.431 22.3167 124.931 22.5833 124.415 22.75C123.898 22.9167 123.273 23 122.54 23C120.706 23 119.306 22.4917 118.34 21.475C117.373 20.4583 116.89 18.9 116.89 16.8C116.89 14.8333 117.406 13.3167 118.44 12.25C119.49 11.1667 120.873 10.625 122.59 10.625C123.606 10.625 124.431 10.7833 125.065 11.1C125.715 11.4167 126.281 11.925 126.765 12.625L126.965 11H131.015V13.875H130.765C130.448 13.875 130.231 13.9583 130.115 14.125C129.998 14.2917 129.94 14.5583 129.94 14.925V22.875C129.94 24.4417 129.465 25.6833 128.515 26.6C127.581 27.5333 126.24 28 124.49 28ZM123.59 20.35C124.323 20.35 124.84 20.0833 125.14 19.55C125.456 19 125.615 18.225 125.615 17.225V16.45C125.615 15.5 125.456 14.725 125.14 14.125C124.84 13.525 124.323 13.225 123.59 13.225C122.773 13.225 122.215 13.4917 121.915 14.025C121.631 14.5583 121.49 15.4833 121.49 16.8C121.49 17.6833 121.548 18.3833 121.665 18.9C121.781 19.4 121.99 19.7667 122.29 20C122.59 20.2333 123.023 20.35 123.59 20.35ZM142.139 23.4C140.305 23.4 138.739 23.05 137.439 22.35C136.155 21.6333 135.18 20.65 134.514 19.4C133.847 18.1333 133.514 16.6833 133.514 15.05C133.514 13.3833 133.822 11.9083 134.439 10.625C135.055 9.325 135.997 8.30833 137.264 7.575C138.547 6.825 140.122 6.45 141.989 6.45C143.389 6.45 144.564 6.575 145.514 6.825C146.464 7.075 147.33 7.48333 148.114 8.05V11.5H143.489V9.65C143.072 9.46667 142.572 9.375 141.989 9.375C140.755 9.375 139.797 9.875 139.114 10.875C138.43 11.875 138.089 13.2667 138.089 15.05C138.089 16.8 138.447 18.1417 139.164 19.075C139.897 20.0083 140.964 20.475 142.364 20.475C142.997 20.475 143.589 20.4083 144.139 20.275V16.8H141.239V13.9H148.764V21.475C146.997 22.7583 144.789 23.4 142.139 23.4ZM158.13 23.375C156.03 23.375 154.397 22.8333 153.23 21.75C152.08 20.6667 151.505 19.0833 151.505 17C151.505 14.9 152.072 13.3167 153.205 12.25C154.338 11.1667 155.98 10.625 158.13 10.625C160.263 10.625 161.888 11.1667 163.005 12.25C164.138 13.3167 164.705 14.9 164.705 17C164.705 19.0833 164.13 20.6667 162.98 21.75C161.83 22.8333 160.213 23.375 158.13 23.375ZM158.13 20.4C158.863 20.4 159.372 20.1417 159.655 19.625C159.955 19.0917 160.105 18.2167 160.105 17C160.105 15.7667 159.955 14.8917 159.655 14.375C159.372 13.8583 158.863 13.6 158.13 13.6C157.38 13.6 156.863 13.8583 156.58 14.375C156.297 14.875 156.155 15.75 156.155 17C156.155 18.2333 156.297 19.1083 156.58 19.625C156.863 20.1417 157.38 20.4 158.13 20.4ZM166.811 20.275H167.336C167.619 20.275 167.811 20.2167 167.911 20.1C168.027 19.9667 168.086 19.75 168.086 19.45V9.95C168.086 9.65 168.027 9.44167 167.911 9.325C167.811 9.19167 167.619 9.125 167.336 9.125H166.811V6.45H173.811V9.125H173.036C172.752 9.125 172.552 9.19167 172.436 9.325C172.336 9.44167 172.286 9.65 172.286 9.95V15.225L174.061 13.7H173.236V11H180.486V13.7H179.061C178.794 13.7 178.586 13.725 178.436 13.775C178.286 13.825 178.144 13.9083 178.011 14.025L176.361 15.375L178.861 19.825C179.044 20.125 179.344 20.275 179.761 20.275H181.036V23H176.511L173.486 17.725L172.286 18.7V19.45C172.286 19.75 172.336 19.9667 172.436 20.1C172.552 20.2167 172.752 20.275 173.036 20.275H173.811V23H166.811V20.275ZM192.157 23.4C190.324 23.4 188.757 23.05 187.457 22.35C186.174 21.6333 185.199 20.65 184.532 19.4C183.866 18.1333 183.532 16.6833 183.532 15.05C183.532 13.3833 183.841 11.9083 184.457 10.625C185.074 9.325 186.016 8.30833 187.282 7.575C188.566 6.825 190.141 6.45 192.007 6.45C193.407 6.45 194.582 6.575 195.532 6.825C196.482 7.075 197.349 7.48333 198.132 8.05V11.5H193.507V9.65C193.091 9.46667 192.591 9.375 192.007 9.375C190.774 9.375 189.816 9.875 189.132 10.875C188.449 11.875 188.107 13.2667 188.107 15.05C188.107 16.8 188.466 18.1417 189.182 19.075C189.916 20.0083 190.982 20.475 192.382 20.475C193.016 20.475 193.607 20.4083 194.157 20.275V16.8H191.257V13.9H198.782V21.475C197.016 22.7583 194.807 23.4 192.157 23.4ZM208.148 23.375C206.048 23.375 204.415 22.8333 203.248 21.75C202.098 20.6667 201.523 19.0833 201.523 17C201.523 14.9 202.09 13.3167 203.223 12.25C204.357 11.1667 205.998 10.625 208.148 10.625C210.282 10.625 211.907 11.1667 213.023 12.25C214.157 13.3167 214.723 14.9 214.723 17C214.723 19.0833 214.148 20.6667 212.998 21.75C211.848 22.8333 210.232 23.375 208.148 23.375ZM208.148 20.4C208.882 20.4 209.39 20.1417 209.673 19.625C209.973 19.0917 210.123 18.2167 210.123 17C210.123 15.7667 209.973 14.8917 209.673 14.375C209.39 13.8583 208.882 13.6 208.148 13.6C207.398 13.6 206.882 13.8583 206.598 14.375C206.315 14.875 206.173 15.75 206.173 17C206.173 18.2333 206.315 19.1083 206.598 19.625C206.882 20.1417 207.398 20.4 208.148 20.4ZM216.829 20.275H217.354C217.637 20.275 217.829 20.2167 217.929 20.1C218.046 19.9667 218.104 19.75 218.104 19.45V9.95C218.104 9.65 218.046 9.44167 217.929 9.325C217.829 9.19167 217.637 9.125 217.354 9.125H216.829V6.45H223.829V9.125H223.054C222.771 9.125 222.571 9.19167 222.454 9.325C222.354 9.44167 222.304 9.65 222.304 9.95V15.225L224.079 13.7H223.254V11H230.504V13.7H229.079C228.812 13.7 228.604 13.725 228.454 13.775C228.304 13.825 228.162 13.9083 228.029 14.025L226.379 15.375L228.879 19.825C229.062 20.125 229.362 20.275 229.779 20.275H231.054V23H226.529L223.504 17.725L222.304 18.7V19.45C222.304 19.75 222.354 19.9667 222.454 20.1C222.571 20.2167 222.771 20.275 223.054 20.275H223.829V23H216.829V20.275Z" fill="white"/>
</svg>
