<svg width="26" height="31" viewBox="0 0 26 31" fill="none" xmlns="http://www.w3.org/2000/svg">
<path d="M25.88 16.4462C25.825 15.7011 25.765 14.9459 25.6399 14.2208C25.42 12.9267 24.9999 11.6748 24.3947 10.5101C24.1342 10.0111 23.7851 9.56377 23.3645 9.1898C23.0663 8.90131 22.6777 8.72465 22.2643 8.6897C22.0536 8.68125 21.8426 8.69297 21.6342 8.72471C21.0761 8.77017 20.5487 8.99873 20.1339 9.37485C20.0716 9.42219 20.0065 9.46561 19.9388 9.50486L19.8788 9.47486C19.8338 9.41985 19.7788 9.36484 19.7388 9.30483C19.6172 9.11416 19.4428 8.96298 19.2368 8.86974C19.0308 8.77651 18.8021 8.74524 18.5786 8.77973C18.3272 8.80002 18.0789 8.84866 17.8384 8.92475C17.8384 8.83473 17.8034 8.74472 17.7834 8.65471C17.7273 8.36095 17.6036 8.08426 17.4222 7.84646C17.2408 7.60866 17.0067 7.41625 16.7382 7.28443C16.7382 7.18441 16.7732 7.0894 16.7932 6.99438C16.8946 6.44274 17.0837 5.9109 17.3533 5.41908C17.5796 5.02823 17.9151 4.7119 18.3185 4.5089C18.4369 4.43862 18.571 4.39907 18.7086 4.39388C18.7265 4.3925 18.7445 4.39575 18.7608 4.40329C18.7771 4.41084 18.7912 4.42244 18.8017 4.43699C18.8122 4.45154 18.8189 4.46855 18.821 4.48639C18.823 4.50424 18.8205 4.52232 18.8136 4.53891C18.776 4.61709 18.7427 4.69723 18.7136 4.77896C18.605 5.05984 18.5875 5.36775 18.6636 5.65912C18.7836 6.10421 18.9736 6.22923 19.4237 6.15922H19.4987C19.633 6.13581 19.7554 6.06778 19.8462 5.96613C19.9369 5.86447 19.9907 5.73515 19.9988 5.59911C20.0319 5.3879 20.0054 5.17167 19.9223 4.97468C19.8393 4.77769 19.703 4.60775 19.5288 4.48391C19.3637 4.36388 19.3637 4.35387 19.4687 4.19384C19.5738 4.03381 19.7888 3.74876 19.9688 3.52872C20.0539 3.4087 20.1489 3.28867 20.2939 3.10364C20.049 3.16824 19.8261 3.29783 19.6488 3.47871C19.4445 3.68139 19.2633 3.90615 19.1087 4.14884C19.0818 4.19704 19.0415 4.23641 18.9927 4.26215C18.9438 4.2879 18.8886 4.29892 18.8336 4.29387C18.6653 4.28331 18.4964 4.30021 18.3335 4.34388C18.0374 4.42041 17.7602 4.55715 17.5193 4.74558C17.2784 4.93402 17.0789 5.1701 16.9333 5.43908C16.6794 5.90798 16.5021 6.41447 16.4082 6.93937C16.4082 7.01438 16.4082 7.0844 16.3731 7.15442C16.1531 7.0844 15.9231 7.01939 15.693 6.96939C15.3079 6.88437 14.9129 6.81936 14.5228 6.73434C14.3278 6.69351 14.137 6.63491 13.9527 6.5593C13.8327 6.52006 13.732 6.43692 13.6708 6.32655C13.6096 6.21617 13.5924 6.08673 13.6226 5.96419C13.6452 5.8288 13.6873 5.69741 13.7476 5.57411C13.9854 5.06047 14.3258 4.60094 14.7478 4.22385C15.4752 3.53481 16.3727 3.05156 17.3483 2.82358C17.5534 2.77357 17.7534 2.70356 17.9585 2.63855C18.0249 2.62054 18.0833 2.5806 18.1241 2.52522C18.165 2.46983 18.1859 2.40226 18.1835 2.33348C18.191 2.2336 18.191 2.1333 18.1835 2.03342C18.1835 1.74837 18.1435 1.45832 18.1085 1.17826C18.0735 0.898208 18.0385 0.678167 18.0035 0.398113C17.9949 0.310963 17.958 0.229038 17.8983 0.164898C17.8387 0.100759 17.7597 0.057953 17.6734 0.0430488C17.4419 -0.0143496 17.1998 -0.0143496 16.9683 0.0430488C16.2445 0.171904 15.5392 0.388534 14.8679 0.688162C14.15 1.01767 13.5272 1.52346 13.0575 2.15845C12.5388 2.83033 12.1257 3.57741 11.8323 4.37388C11.7523 4.59893 11.6672 4.81896 11.5822 5.03901C11.3558 5.67645 10.9599 6.2401 10.437 6.66932C10.237 6.83436 10.0369 6.98938 9.83189 7.13441C9.58931 6.99045 9.3615 6.82294 9.15176 6.63431C8.92171 6.42427 8.69668 6.20923 8.47163 5.99419C8.27854 5.80022 8.06942 5.6229 7.84651 5.46409C7.44657 5.18704 6.99183 4.99903 6.51302 4.91276C6.0342 4.82649 5.54245 4.84396 5.07097 4.96399C4.77699 5.02583 4.50388 5.16228 4.27791 5.36022C4.05194 5.55816 3.88072 5.81094 3.78073 6.09422C3.66061 6.35511 3.61558 6.64431 3.6507 6.92937C3.65301 6.94798 3.6618 6.96518 3.67551 6.97798C3.68922 6.99077 3.70698 6.99836 3.72571 6.99939C3.73814 6.99788 3.75007 6.99347 3.76049 6.98652C3.77091 6.97958 3.77954 6.97027 3.78572 6.95937C3.90885 6.70305 4.058 6.46007 4.23081 6.23424C4.41781 5.94972 4.7024 5.7434 5.03097 5.65413C5.71526 5.4451 6.45009 5.4733 7.11636 5.73415C7.62228 5.94891 8.08491 6.25393 8.48163 6.63431C8.72167 6.85436 8.98172 7.06439 9.21176 7.26943C9.27893 7.32562 9.3509 7.37583 9.42682 7.41947L9.31179 7.48947C9.06174 7.6245 8.81169 7.76954 8.56165 7.90456C7.8375 8.30613 7.24519 8.90886 6.85632 9.6399C6.77242 9.77781 6.70207 9.92351 6.64627 10.075C6.59126 10.155 6.52625 10.225 6.45124 10.315C6.38707 10.2682 6.32531 10.2181 6.26621 10.165C6.14618 10.055 6.03116 9.93995 5.92114 9.82493C5.71925 9.61703 5.45324 9.48314 5.16599 9.44485C4.83263 9.39391 4.49241 9.41092 4.1658 9.49486C3.18122 9.71197 2.30879 10.2788 1.71032 11.0902C1.14017 11.8507 0.728624 12.718 0.500096 13.6407C0.174014 14.8968 0.00601646 16.1887 0 17.4864C0 18.2566 -2.44053e-06 19.0317 0.0600091 19.8018C0.120021 20.572 0.210042 21.2621 0.345068 21.9873C0.608861 23.3089 0.980167 24.6068 1.45528 25.868C1.72424 26.5939 2.05903 27.2936 2.45547 27.9584C2.72137 28.4146 3.0591 28.825 3.45567 29.1737C3.69027 29.4006 3.9829 29.5585 4.3014 29.63C4.6199 29.7014 4.95193 29.6837 5.26101 29.5787C5.55905 29.49 5.8447 29.364 6.11118 29.2037C6.42624 29.0136 6.53626 29.0236 6.81631 29.2537C6.90437 29.3251 6.98788 29.4019 7.06636 29.4837C7.19796 29.6187 7.36392 29.7152 7.54636 29.7628C7.7288 29.8104 7.92077 29.8073 8.10155 29.7538C8.38661 29.6688 8.66666 29.5687 8.94671 29.4687C9.13675 29.3987 9.31679 29.3087 9.49682 29.2287C9.64538 29.1612 9.80907 29.134 9.97146 29.1498C10.1339 29.1656 10.2892 29.2238 10.422 29.3187C10.517 29.3787 10.607 29.4487 10.6971 29.5137C10.7871 29.5787 10.9271 29.7037 11.0521 29.7888C11.2951 29.9668 11.5914 30.0567 11.8923 30.0438C12.2316 30.0407 12.5642 29.9494 12.8575 29.7788C13.0092 29.6798 13.1843 29.6227 13.3652 29.613C13.5461 29.6034 13.7263 29.6416 13.8877 29.7238L14.3028 29.8938C14.5228 29.9788 14.7428 30.0688 14.9679 30.1438C15.6142 30.3482 16.2998 30.3962 16.9683 30.2839C17.6784 30.1816 18.3596 29.933 18.9686 29.5537C19.4037 29.2787 19.3687 29.1837 19.9988 29.4537C20.2394 29.5588 20.499 29.613 20.7615 29.613C21.024 29.613 21.2836 29.5588 21.5241 29.4537C22.0517 29.2243 22.533 28.9006 22.9444 28.4985C23.528 27.9227 24.0009 27.2447 24.3397 26.4981C24.7312 25.6754 25.046 24.8183 25.2799 23.9376C25.5173 23.0473 25.6927 22.1417 25.805 21.2271C25.91 20.372 25.98 19.5168 26 18.6566C25.97 17.8932 25.93 17.1563 25.88 16.4462ZM19.2337 4.74896C19.3655 4.9001 19.4526 5.08494 19.4853 5.28278C19.5179 5.48063 19.4949 5.68367 19.4187 5.86917C19.4123 5.88297 19.402 5.89465 19.3892 5.90283C19.3764 5.91102 19.3615 5.91535 19.3462 5.91535C19.331 5.91535 19.3161 5.91102 19.3032 5.90283C19.2904 5.89465 19.2801 5.88297 19.2737 5.86917C19.1737 5.72117 19.1182 5.54763 19.1137 5.36907C19.1013 5.15558 19.1425 4.94239 19.2337 4.74896ZM18.7936 15.0759C19.127 14.3691 19.4604 13.6607 19.7938 12.9505C19.8588 12.8155 19.9388 12.6855 20.0039 12.5555C20.0303 12.5055 20.0699 12.4637 20.1184 12.4346C20.1669 12.4055 20.2224 12.3902 20.2789 12.3904C20.5239 12.3904 20.5739 12.3904 20.634 12.6655C20.6772 12.8608 20.6857 13.0623 20.659 13.2606C20.6244 13.5316 20.5743 13.8004 20.5089 14.0657C20.2789 14.9359 20.0389 15.7961 19.7988 16.6612C19.705 17.0495 19.5622 17.4243 19.3737 17.7765C19.3413 17.8219 19.3269 17.8778 19.3334 17.9332C19.3399 17.9887 19.3667 18.0398 19.4087 18.0765C19.6745 18.3723 19.9584 18.6512 20.2589 18.9117C20.7071 19.2887 21.1781 19.6377 21.6692 19.9569L22.1042 20.2519C22.1523 20.282 22.1879 20.3284 22.2044 20.3826C22.221 20.4368 22.2174 20.4952 22.1943 20.547C22.1543 20.667 22.0993 20.712 21.9742 20.692C21.7392 20.657 21.5041 20.617 21.2741 20.562C20.5559 20.403 19.8616 20.1508 19.2087 19.8119C18.9779 19.6894 18.7542 19.5542 18.5386 19.4068C18.4735 19.3568 18.4135 19.2817 18.3185 19.2767C18.243 19.3206 18.1794 19.3824 18.1335 19.4568C17.4597 20.2632 16.5901 20.8832 15.608 21.2571C15.2254 21.4091 14.8327 21.5345 14.4328 21.6322C14.2997 21.6646 14.1608 21.6646 14.0277 21.6322C14.0163 21.6279 14.0059 21.6213 13.9972 21.6126C13.9886 21.604 13.9819 21.5936 13.9777 21.5822C13.9732 21.5728 13.9709 21.5626 13.9709 21.5522C13.9709 21.5418 13.9732 21.5316 13.9777 21.5222C14.0777 21.4422 14.1727 21.3621 14.2727 21.2921C14.6834 20.9865 15.0473 20.6226 15.3529 20.2119C15.888 19.5568 16.3531 18.8617 16.8532 18.1665C16.8982 18.1065 16.9383 18.0415 16.9783 17.9815C16.9905 17.9593 16.997 17.9344 16.997 17.909C16.997 17.8836 16.9905 17.8587 16.9783 17.8365L16.8282 17.5764C16.1257 16.3235 15.6803 14.9429 15.518 13.5156C15.518 13.3706 15.518 13.2206 15.493 13.0705C15.4848 12.9829 15.5 12.8947 15.5369 12.8148C15.5737 12.7349 15.6311 12.6661 15.703 12.6155C15.8781 12.4754 15.9431 12.4754 16.0381 12.6855C16.5382 13.7807 17.1383 14.8059 17.7234 15.8461C17.8079 16.0307 17.9229 16.1997 18.0635 16.3462C18.343 15.9446 18.5872 15.5196 18.7936 15.0759ZM4.55088 20.8971C5.05098 20.1469 5.52606 19.3568 5.96614 18.5616C5.99079 18.52 6.00378 18.4725 6.00378 18.4241C6.00378 18.3757 5.99079 18.3282 5.96614 18.2866C5.34051 16.8261 5.00097 15.2591 4.96595 13.6707C4.94432 13.2222 4.95267 12.7728 4.99095 12.3254C4.99102 12.269 5.00703 12.2137 5.0371 12.1659C5.06718 12.1181 5.11011 12.0798 5.16098 12.0554C5.20599 12.0554 5.26101 12.0304 5.28102 12.0954C5.29794 12.1542 5.30965 12.2145 5.31603 12.2754C5.38244 12.8069 5.5048 13.3299 5.68109 13.8357C6.00615 14.7659 6.35121 15.6861 6.74129 16.5862C6.7863 16.6862 6.80131 16.8063 6.90633 16.8763C6.97634 16.8763 6.99133 16.7963 7.02134 16.7463C7.60145 15.7861 8.16157 14.8142 8.70167 13.8307C8.8567 13.5456 9.02673 13.2706 9.20177 12.9955C9.2476 12.9087 9.32564 12.8433 9.41914 12.8134C9.51264 12.7835 9.61415 12.7914 9.70186 12.8355C9.72702 12.8415 9.74909 12.8565 9.76386 12.8777C9.77862 12.8989 9.78504 12.9249 9.78188 12.9505C9.77546 13.0362 9.76377 13.1214 9.74687 13.2056C9.69686 13.4256 9.65186 13.6457 9.58185 13.8607C9.3618 14.5058 9.18176 15.171 8.93672 15.8111C8.71235 16.4315 8.4398 17.0335 8.12156 17.6114C7.99153 17.8365 7.88652 18.0765 7.76649 18.3116C7.73729 18.3589 7.72181 18.4135 7.72181 18.4691C7.72181 18.5247 7.73729 18.5793 7.76649 18.6266C8.28446 19.5816 8.94747 20.4504 9.73187 21.2021L10.457 21.8522C10.498 21.8796 10.5303 21.9182 10.5498 21.9635C10.5693 22.0087 10.5753 22.0587 10.567 22.1073C10.5664 22.1196 10.5633 22.1316 10.5579 22.1426C10.5524 22.1537 10.5448 22.1635 10.5354 22.1715C10.526 22.1794 10.5151 22.1854 10.5034 22.189C10.4916 22.1925 10.4792 22.1937 10.467 22.1923C10.4301 22.1875 10.3944 22.1756 10.362 22.1573C10.157 22.0623 9.95192 21.9823 9.75188 21.8722C8.7962 21.3598 7.91182 20.7243 7.12137 19.9819L6.99134 19.8469C6.95133 19.8019 6.92633 19.7418 6.85632 19.7318C6.7863 19.7218 6.7363 19.8569 6.67629 19.9219C6.21849 20.4639 5.70377 20.9551 5.14099 21.3872C4.91787 21.5694 4.66377 21.71 4.39084 21.8022C4.31766 21.838 4.23727 21.8566 4.1558 21.8566C4.07433 21.8566 3.99394 21.838 3.92075 21.8022L4.55088 20.8971ZM24.0296 19.9569C23.9556 20.5755 23.8336 21.1875 23.6645 21.7872C23.4945 22.3773 23.3195 22.9575 23.1344 23.5426C22.9355 24.1462 22.6617 24.7225 22.3193 25.2579C22.2393 25.3829 22.1393 25.498 22.0492 25.613C22.0348 25.6346 22.0142 25.6514 21.9902 25.6612C21.9661 25.671 21.9396 25.6734 21.9142 25.668C21.99 25.2137 22.0085 24.7516 21.9692 24.2927C21.9636 24.1935 21.9502 24.0948 21.9292 23.9977C21.8742 23.7676 21.7792 23.7076 21.5491 23.7826C21.2046 23.8993 20.8891 24.0886 20.624 24.3377C20.5172 24.4447 20.4532 24.587 20.4439 24.7378C20.4039 25.0179 20.3639 25.3029 20.3289 25.588C20.2939 25.873 20.2489 26.0881 20.2289 26.3281C20.2284 26.42 20.1964 26.5089 20.1381 26.58C20.0798 26.651 19.9989 26.6998 19.9088 26.7182C19.3437 26.8782 18.7736 27.0182 18.1985 27.1283C17.3183 27.2933 16.4282 27.3883 15.538 27.4933H15.498C15.373 27.4933 15.333 27.4683 15.348 27.3533C15.3891 27.0216 15.4008 26.6869 15.383 26.3531C15.3747 26.1045 15.3463 25.857 15.2979 25.613C15.2856 25.5394 15.2655 25.4673 15.2379 25.3979C15.221 25.3375 15.1861 25.2836 15.1379 25.2434C15.0897 25.2033 15.0304 25.1787 14.9679 25.1729C14.5573 25.1174 14.1397 25.1908 13.7726 25.3829C13.7162 25.4099 13.6675 25.4506 13.6308 25.5013C13.5941 25.5519 13.5707 25.611 13.5626 25.673C13.544 25.7706 13.5307 25.869 13.5226 25.968C13.4926 26.4281 13.4676 26.8882 13.4426 27.3483C13.4426 27.3883 13.4426 27.4233 13.4426 27.4583C13.4426 27.6083 13.4126 27.6434 13.2725 27.6484H12.3774C12.1773 27.6484 11.9823 27.6484 11.8123 27.6484C11.7806 27.6192 11.7585 27.5812 11.7487 27.5393C11.7389 27.4974 11.7418 27.4535 11.7573 27.4133C11.7932 26.9911 11.7764 26.5661 11.7073 26.1481C11.6522 25.723 11.5372 25.648 11.1021 25.703C10.817 25.7353 10.5396 25.8165 10.282 25.943C10.1635 25.9865 10.0636 26.0693 9.99895 26.1776C9.9343 26.286 9.90888 26.4133 9.92691 26.5381C9.92691 26.6982 9.95191 26.8582 9.96191 27.0382C9.97191 27.2183 9.98691 27.3333 9.99191 27.4833C9.99263 27.4986 9.99015 27.5139 9.98462 27.5282C9.97909 27.5424 9.97064 27.5554 9.95982 27.5662C9.94899 27.5771 9.93602 27.5855 9.92174 27.591C9.90746 27.5966 9.89219 27.5991 9.8769 27.5984H9.72686L9.22677 27.5633C9.01614 27.5357 8.80406 27.5207 8.59165 27.5183C8.04655 27.5183 7.49644 27.5183 6.95133 27.4533C6.69129 27.4533 6.45124 27.3883 6.17119 27.3483C6.12785 27.3458 6.08712 27.3267 6.05736 27.2951C6.02761 27.2635 6.01108 27.2217 6.01115 27.1783C6.01115 26.9882 5.98115 26.8032 5.96614 26.6182C5.93614 26.3081 5.91113 25.998 5.88613 25.688C5.88615 25.6504 5.87157 25.6142 5.84544 25.5872C5.81931 25.5601 5.78369 25.5443 5.7461 25.543L4.66589 25.4579C4.64094 25.4536 4.61535 25.4547 4.59088 25.4612C4.56641 25.4677 4.54363 25.4795 4.52414 25.4956C4.50465 25.5118 4.4889 25.532 4.47797 25.5549C4.46705 25.5777 4.4612 25.6027 4.46085 25.628C4.43833 25.8642 4.43833 26.1019 4.46085 26.3381C4.46085 26.4631 4.46086 26.5882 4.48586 26.7132C4.48411 26.7251 4.47948 26.7365 4.4724 26.7462C4.46532 26.756 4.45599 26.764 4.44519 26.7694C4.43439 26.7748 4.42244 26.7775 4.41036 26.7773C4.39829 26.7771 4.38645 26.774 4.37584 26.7682C4.23209 26.691 4.11131 26.5771 4.02577 26.4381C3.66019 25.9036 3.34542 25.336 3.08559 24.7428C2.63468 23.6614 2.28805 22.5394 2.0504 21.3922C1.8792 20.6649 1.77705 19.9232 1.74533 19.1767C2.03539 19.7268 2.37045 20.2319 2.6205 20.792C2.84546 21.2928 3.12201 21.7688 3.44566 22.2123C3.90973 22.8797 4.52488 23.428 5.241 23.8126C5.48605 23.9376 5.7411 24.0377 5.99615 24.1377C6.04359 24.1501 6.08596 24.177 6.11734 24.2146C6.14873 24.2523 6.16756 24.2988 6.17119 24.3477C6.21281 24.6692 6.27969 24.9869 6.37122 25.2979C6.39623 25.3779 6.42123 25.4629 6.45124 25.543C6.47014 25.6101 6.50892 25.6699 6.56248 25.7145C6.61604 25.7592 6.68188 25.7865 6.7513 25.793C7.18299 25.8721 7.62819 25.8288 8.03654 25.668C8.15236 25.6218 8.25377 25.5456 8.33026 25.4471C8.40675 25.3486 8.45555 25.2315 8.47163 25.1079C8.49664 24.9328 8.51663 24.7628 8.54164 24.6078C8.56664 24.4527 8.57164 24.4127 8.77668 24.4077C9.53683 24.4077 10.277 24.4077 11.0571 24.3777C12.3652 24.3379 13.6696 24.2176 14.9629 24.0177C15.663 23.9126 16.3582 23.7526 17.0533 23.6226L17.1633 23.5976C17.2333 23.5976 17.2883 23.5976 17.2983 23.6826C17.3283 23.8426 17.3483 24.0027 17.3833 24.1827C17.4183 24.3627 17.4734 24.5678 17.5234 24.7628C17.5364 24.8179 17.5688 24.8664 17.6148 24.8995C17.6607 24.9326 17.717 24.948 17.7734 24.9428H17.8884L19.0137 24.6828C19.051 24.6734 19.0878 24.6617 19.1237 24.6478C19.2889 24.6079 19.4354 24.5128 19.5391 24.3781C19.6428 24.2435 19.6974 24.0775 19.6938 23.9076C19.6938 23.6226 19.7438 23.3375 19.7588 23.0525C19.7574 23.0031 19.7731 22.9548 19.8032 22.9157C19.8332 22.8765 19.8758 22.8489 19.9238 22.8374C20.4239 22.6624 20.924 22.4524 21.4241 22.2923C22.1273 22.056 22.73 21.589 23.1344 20.9671C23.3278 20.6809 23.4952 20.378 23.6345 20.0619C23.7146 19.8919 23.7946 19.7218 23.8846 19.5618C23.8846 19.5268 23.9196 19.4668 24.0096 19.4818C24.0339 19.6389 24.0406 19.7983 24.0296 19.9569Z" fill="white"/>
</svg>
