<svg width="26" height="31" viewBox="0 0 26 31" fill="none" xmlns="http://www.w3.org/2000/svg">
<path d="M25.9535 18.6739C25.8946 17.7005 25.7769 16.7315 25.6012 15.7723C25.4204 14.7005 25.1268 13.6508 24.7253 12.6407C24.4909 12.025 24.1714 11.4453 23.776 10.9183C23.5183 10.5752 23.1958 10.286 22.8268 10.0669C22.5568 9.89859 22.2483 9.80212 21.9306 9.7867C21.6128 9.77128 21.2964 9.83744 21.0114 9.97887C20.8059 9.60195 20.5398 9.26141 20.2237 8.97089C19.6719 8.46985 19.0505 8.05124 18.3789 7.72804C17.8462 7.45639 17.2893 7.23523 16.7153 7.06747L16.818 6.9794C17.1835 6.62005 17.4994 6.21361 17.7575 5.7708C18.0315 5.31085 18.3007 4.84601 18.5845 4.39584C18.8535 3.9775 19.1834 3.60151 19.5631 3.28022C19.692 3.15575 19.8604 3.08028 20.0392 3.06687C20.2179 3.05347 20.3956 3.10298 20.5417 3.20682C20.7134 3.30201 20.8647 3.43002 20.987 3.58358C21.1592 3.80498 21.2871 4.0575 21.3637 4.32733C21.4078 4.47412 21.3637 4.50349 21.2121 4.53285C21.138 4.53947 21.0644 4.55092 20.9919 4.5671C20.6789 4.62583 20.3946 4.78776 20.1845 5.02704C20.1025 5.11815 20.0505 5.2323 20.0356 5.35399C20.0207 5.47567 20.0437 5.599 20.1013 5.70719C20.1574 5.81766 20.2478 5.90695 20.359 5.96165C20.4702 6.01636 20.5961 6.03351 20.7178 6.01056C21.0914 5.98606 21.4415 5.81978 21.6965 5.54572C21.7405 5.4919 21.7748 5.4185 21.8824 5.43318C22.1232 6.05423 22.3243 6.68998 22.4843 7.33658C22.6193 7.15984 22.69 6.9424 22.6849 6.72006C22.6826 6.23072 22.6085 5.74435 22.4647 5.27659C22.4325 5.14559 22.3608 5.02769 22.2592 4.93897C22.1954 4.8926 22.1469 4.82825 22.1199 4.75416C22.0928 4.68007 22.0885 4.5996 22.1075 4.52305C22.1148 4.46293 22.1148 4.40213 22.1075 4.34201C22.1078 4.13091 22.0651 3.92198 21.982 3.72791C21.899 3.53383 21.7773 3.35868 21.6244 3.21312C21.4715 3.06756 21.2906 2.95463 21.0927 2.8812C20.8948 2.80778 20.684 2.77539 20.4732 2.78601C19.8436 2.80354 19.2425 3.05267 18.7851 3.48572C18.4901 3.75947 18.2319 4.07033 18.0169 4.41052C17.7135 4.89983 17.4444 5.38913 17.1753 5.90291C16.9789 6.26683 16.7478 6.61095 16.4853 6.93046C16.4402 6.89348 16.4021 6.84875 16.3728 6.79835C16.1502 6.4477 15.9633 6.07558 15.815 5.68761C15.7122 5.4136 15.6143 5.13959 15.5165 4.86557C15.4098 4.53976 15.2618 4.22897 15.0761 3.94079C14.8476 3.54728 14.503 3.23403 14.0896 3.04395C13.6761 2.85387 13.214 2.79625 12.7666 2.87898C12.5415 2.91323 12.3115 2.96216 12.0864 3.0062C11.6568 3.09743 11.2143 3.11068 10.78 3.04534C10.3256 2.98113 9.8906 2.81876 9.50528 2.56949C9.11997 2.32021 8.79355 1.99002 8.54872 1.60187C8.38724 1.34254 8.25024 1.06853 8.09366 0.809191C7.93708 0.549857 7.80986 0.354136 7.65329 0.138839C7.62881 0.101642 7.59657 0.0701938 7.55878 0.0466458C7.52099 0.0230978 7.47855 0.00801035 7.43437 0.00243053C7.3902 -0.0031493 7.34535 0.000904986 7.30289 0.0143168C7.26044 0.0277287 7.22139 0.0501811 7.18844 0.0801246L7.13462 0.124161C6.86903 0.394103 6.63434 0.692797 6.43489 1.01471C6.35574 1.15422 6.32317 1.31536 6.34192 1.47466C6.35573 1.6073 6.38194 1.73835 6.42022 1.8661C6.69505 2.72283 7.2522 3.46108 8.00069 3.96035C8.5311 4.35286 9.13266 4.63869 9.77199 4.80196C10.1292 4.89004 10.4815 4.97812 10.8387 5.05641L11.8173 5.28149C11.9998 5.3039 12.1708 5.38256 12.3066 5.50657C12.2804 5.67015 12.2111 5.82382 12.106 5.95184C11.9739 6.14267 11.8222 6.31882 11.6999 6.51455C11.6624 6.57048 11.618 6.62145 11.5678 6.66623C11.3792 6.50726 11.166 6.38001 10.9366 6.28947C10.419 6.09973 9.86178 6.04417 9.31694 6.12799C8.9318 6.18201 8.54965 6.2555 8.17195 6.34818C7.97042 6.39632 7.76617 6.43227 7.56032 6.45583C7.02606 6.52148 6.48394 6.4438 5.98962 6.23075C5.97493 6.20703 5.95378 6.18798 5.92865 6.17585C5.90352 6.16371 5.87545 6.15899 5.84773 6.16224C5.83484 6.13801 5.81472 6.11839 5.79017 6.10611C5.76561 6.09383 5.73785 6.08952 5.71072 6.09375C5.6975 6.06951 5.6775 6.04965 5.65316 6.03661C5.62882 6.02358 5.60122 6.01793 5.57372 6.02035C5.24687 5.83588 4.94717 5.60698 4.68317 5.34021C4.79665 5.63552 5.01419 5.87915 5.29481 6.02524C5.70154 6.33456 6.15383 6.57886 6.63551 6.74942C6.78637 6.79819 6.94235 6.82939 7.10036 6.84239C7.59755 6.89053 8.09877 6.87737 8.59275 6.80324C9.12546 6.74288 9.66187 6.72162 10.1977 6.73962C10.4503 6.74734 10.7006 6.79016 10.9414 6.86685C10.3956 6.95679 9.85976 7.09935 9.3414 7.29255C8.30724 7.67268 7.3675 8.27191 6.58658 9.04917C6.4931 9.14887 6.40491 9.25341 6.32236 9.36233C6.27343 9.33787 6.22939 9.30361 6.18536 9.27914C6.00481 9.17413 5.80524 9.10596 5.59818 9.07854C5.1484 9.02487 4.6923 9.07852 4.26725 9.23511C3.62816 9.48507 3.06143 9.89037 2.61828 10.4143C2.25482 10.8274 1.94719 11.2864 1.70328 11.7795C1.48309 12.2297 1.27267 12.6848 1.08184 13.1447C0.776356 13.9292 0.524607 14.7335 0.328317 15.5521C0.102027 16.4393 -0.00817886 17.3522 0.00047241 18.2678C-6.80674e-05 19.4165 0.103108 20.5628 0.30874 21.6929C0.519168 22.7979 0.905754 23.8618 1.45372 24.8441C1.98844 25.7878 2.70136 26.6187 3.55287 27.2906C3.97119 27.6464 4.42166 27.9626 4.89847 28.235C5.8815 28.779 6.92413 29.2076 8.00559 29.5121C8.74283 29.7274 9.49087 29.9038 10.2466 30.0406C11.0574 30.1574 11.8743 30.2276 12.6932 30.251C12.9819 30.251 13.2803 30.251 13.569 30.251C14.2018 30.2919 14.837 30.2787 15.4676 30.2118C16.6003 30.1228 17.7205 29.9145 18.8095 29.5904C20.423 29.1227 21.9223 28.3264 23.2133 27.2515C23.7803 26.7875 24.2636 26.2298 24.6421 25.6025C25.1098 24.7848 25.4497 23.9003 25.6501 22.9798C25.7985 22.327 25.9031 21.6649 25.9633 20.9981C26.0153 20.2241 26.0121 19.4474 25.9535 18.6739ZM21.305 5.30107C21.2679 5.39243 21.2237 5.48076 21.1729 5.56528C21.0604 5.75122 20.9772 5.80505 20.7864 5.56528C20.7028 5.45898 20.6607 5.32595 20.6679 5.19094C20.6751 5.05593 20.7311 4.92814 20.8255 4.83132C20.8422 4.81122 20.8631 4.79509 20.8868 4.78409C20.9105 4.77309 20.9364 4.76749 20.9625 4.76771C20.995 4.76399 21.0279 4.76399 21.0604 4.76771C21.4469 4.90961 21.4518 4.89494 21.305 5.28149V5.30107ZM13.8528 19.5791L13.8969 19.4764C14.3711 18.6334 15.0869 17.9517 15.952 17.5191C16.2487 17.3781 16.563 17.2777 16.8866 17.2206C17.689 17.0787 18.5013 16.976 19.2989 16.7901C19.6217 16.7265 19.9404 16.6431 20.253 16.5405C21.0382 16.2598 21.7377 15.7811 22.2836 15.1509C22.3619 15.0628 22.4353 14.9649 22.5185 14.8768C22.5488 14.8379 22.5909 14.8097 22.6385 14.7965C22.6861 14.7832 22.7367 14.7857 22.7827 14.8035C22.829 14.8215 22.868 14.8543 22.8936 14.8968C22.9193 14.9392 22.9302 14.989 22.9246 15.0383C22.9238 15.161 22.9156 15.2836 22.9002 15.4053C22.7671 16.5758 22.4927 17.7259 22.083 18.8305C21.8885 19.3166 21.6646 19.7905 21.4127 20.2495C21.0845 20.8386 20.6361 21.3521 20.0964 21.7565C19.6926 22.0495 19.2577 22.2973 18.7998 22.4954C18.3952 22.6697 17.9583 22.7564 17.5178 22.7498C17.2588 22.7517 17.0023 22.7001 16.7642 22.5982C16.2403 22.3974 15.7464 22.1257 15.2963 21.7908C14.6851 21.2832 14.1938 20.6465 13.8577 19.9265C13.8216 19.8723 13.8019 19.8089 13.8011 19.7438C13.8002 19.6786 13.8182 19.6147 13.8528 19.5595V19.5791ZM4.06664 12.5086C4.14406 12.4893 4.22531 12.4919 4.30135 12.5161C4.37738 12.5403 4.4452 12.5851 4.49723 12.6456C4.5594 12.6633 4.61996 12.6862 4.67827 12.7141C5.10422 12.9226 5.51467 13.1613 5.90645 13.4285C6.63889 13.9549 7.33076 14.5355 7.97622 15.1655L8.46553 15.6108C9.27716 16.3511 9.97758 17.2048 10.5451 18.1454C10.6944 18.3957 10.8158 18.6615 10.9072 18.9381C10.9561 19.0751 10.9512 19.0947 10.8289 19.1877C10.2299 19.6633 9.57208 20.0597 8.87166 20.3669C8.72487 20.4256 8.57807 20.4843 8.43617 20.5528C8.07619 20.7331 7.67911 20.827 7.27651 20.8269C7.14929 20.8269 7.02697 20.8269 6.90464 20.8269H6.88017C6.30887 20.8483 5.74473 20.6942 5.2636 20.3854C4.78247 20.0766 4.40745 19.6279 4.18896 19.0996C4.00337 18.66 3.89574 18.1914 3.87092 17.7149C3.84151 17.033 3.87591 16.3499 3.97367 15.6744C4.02749 15.2781 4.05686 14.872 4.07643 14.4707C4.0929 14.0078 4.03508 13.5453 3.90517 13.1007C3.8807 13.0077 3.85134 12.9098 3.83666 12.8169C3.82886 12.7808 3.82841 12.7436 3.83535 12.7074C3.84228 12.6711 3.85643 12.6367 3.87699 12.6061C3.89755 12.5755 3.92408 12.5493 3.95499 12.5292C3.98589 12.5091 4.02054 12.4954 4.05686 12.489L4.06664 12.5086ZM24.7302 18.9724C24.6734 19.8745 24.5225 20.7683 24.28 21.6391C24.0738 22.3927 23.7573 23.1116 23.3406 23.7725C22.7134 24.8106 21.8809 25.7097 20.894 26.4148C20.0636 26.9947 19.044 27.2378 18.0413 27.0949C17.6307 27.0299 17.2368 26.8853 16.8817 26.6692L16.6664 26.5273C16.637 26.5273 16.5979 26.498 16.5734 26.5273C16.5674 26.5377 16.5642 26.5495 16.5642 26.5616C16.5642 26.5736 16.5674 26.5854 16.5734 26.5958C16.6174 26.7475 16.6615 26.8992 16.7153 27.046C16.8327 27.3787 16.9551 27.7114 17.0774 28.0246C17.0774 28.0686 17.1116 28.1176 17.1214 28.1616C17.1312 28.2057 17.0333 28.3378 16.96 28.2986C16.8602 28.2544 16.7651 28.2003 16.6762 28.1371C16.0024 27.6945 15.3847 27.1721 14.8364 26.5811C14.696 26.4294 14.5456 26.2871 14.3862 26.1554C14.303 26.0821 14.2296 26.1114 14.21 26.2288C14.1905 26.3463 14.1709 26.4686 14.1562 26.5909C14.0617 27.1682 14.0403 27.7551 14.0926 28.3378C14.0926 28.3867 14.0926 28.4356 14.0583 28.4699C14.037 28.4828 14.0124 28.4897 13.9874 28.4897C13.9624 28.4897 13.9378 28.4828 13.9164 28.4699C13.6687 28.3133 13.4447 28.1222 13.251 27.9023C12.8614 27.4798 12.5321 27.0056 12.2724 26.4931C12.1997 26.2495 12.0706 26.0265 11.8956 25.8423C11.7008 25.9894 11.5191 26.1531 11.3525 26.3316C10.961 26.679 10.5794 27.0411 10.183 27.3836C9.96037 27.592 9.71208 27.7713 9.44415 27.917C9.35607 27.961 9.30226 27.917 9.30226 27.824C9.30226 27.1292 9.30226 26.4344 9.30226 25.7395V25.4949C9.19461 25.4264 9.13099 25.4949 9.06249 25.5389C8.14083 26.0117 7.18768 26.4205 6.20982 26.7622C6.02388 26.8242 5.83793 26.8829 5.652 26.9383C5.59894 26.9553 5.54303 26.9615 5.48756 26.9564C5.43208 26.9514 5.37818 26.9352 5.32906 26.909C5.22142 26.8503 5.19694 26.7866 5.26055 26.679C5.50031 26.2973 5.74986 25.9157 5.97984 25.534C6.01898 25.4753 6.08259 25.4215 6.06791 25.3383C6.05323 25.2551 5.96517 25.2991 5.91134 25.304C5.36318 25.3665 4.80835 25.2784 4.30656 25.0491C3.80477 24.8197 3.37502 24.4579 3.06356 24.0025C2.6146 23.376 2.31651 22.6542 2.19259 21.8935C2.10314 21.4092 2.05565 20.9181 2.05068 20.4256C2.02132 19.447 1.98707 18.4292 1.91368 17.431C1.84248 16.6292 1.7265 15.8321 1.56627 15.0432C1.53039 14.8866 1.50102 14.7235 1.47818 14.5539C1.46948 14.5246 1.47162 14.4932 1.4842 14.4653C1.49678 14.4375 1.51896 14.4151 1.54669 14.4022C1.59562 14.4022 1.64455 14.3582 1.6788 14.4022C1.73395 14.4816 1.77991 14.5669 1.81581 14.6567C2.11352 15.3925 2.33647 16.1564 2.48128 16.9369C2.58893 17.5338 2.677 18.1406 2.76997 18.7424C2.92287 19.7829 3.25392 20.7893 3.74859 21.7174C3.98146 22.1467 4.27662 22.5391 4.62446 22.882C4.72889 22.9851 4.85392 23.0649 4.99136 23.1164C5.12881 23.1678 5.27557 23.1896 5.42203 23.1804C5.75416 23.1614 6.08275 23.1023 6.40065 23.0043C6.97297 22.8328 7.52189 22.5912 8.03495 22.285C8.43704 22.0553 8.81994 21.7934 9.17993 21.5021C9.22579 21.4607 9.27487 21.4231 9.32672 21.3896C9.35119 21.3727 9.3802 21.3637 9.40991 21.3637C9.43961 21.3637 9.46861 21.3727 9.49308 21.3896C9.52133 21.4006 9.54449 21.4217 9.55805 21.4488C9.57161 21.476 9.57461 21.5072 9.56647 21.5364C9.54143 21.6185 9.51037 21.6986 9.47352 21.7761C9.30565 22.1837 9.08166 22.5658 8.80805 22.9113C8.75684 22.9787 8.70946 23.049 8.66615 23.1217C8.66615 23.1511 8.61722 23.1902 8.62701 23.2098C8.63679 23.2294 8.68573 23.2343 8.71998 23.2098L8.77869 23.1707C9.01931 23.0865 9.24796 22.9713 9.45884 22.8281C9.76711 22.6324 10.0705 22.4269 10.3738 22.2263L11.4993 21.4874C11.6216 21.4091 11.695 21.4336 11.7635 21.5657C11.832 21.6978 11.8369 21.7223 11.8711 21.8006C12.21 22.6156 12.6331 23.3929 13.1335 24.1199C13.048 23.7566 12.994 23.3866 12.9721 23.0141C12.9558 22.5877 12.9886 22.1608 13.0699 21.7419C13.0699 21.6978 13.0699 21.6391 13.1287 21.6195C13.1874 21.6 13.2412 21.6538 13.2755 21.6978C13.3097 21.7419 13.4271 21.8887 13.4956 21.9865C13.917 22.6008 14.3989 23.1713 14.9342 23.6893C15.0983 23.8803 15.2766 24.0586 15.4676 24.2227C15.5041 24.1181 15.5041 24.0043 15.4676 23.8997C15.3675 23.5602 15.2939 23.2133 15.2474 22.8624C15.2474 22.7401 15.1593 22.6128 15.2474 22.4905C15.3746 22.515 15.4431 22.6226 15.5361 22.696C15.8832 22.9861 16.2887 23.1981 16.7251 23.3174C16.9647 23.3687 17.2092 23.3933 17.4542 23.3909C17.9174 23.3932 18.3796 23.3489 18.834 23.2587C19.4697 23.1319 20.0746 22.8826 20.6151 22.5248C21.7373 21.801 22.6594 20.8065 23.2965 19.6329C23.6704 18.9194 23.9973 18.1823 24.2751 17.4262C24.301 17.346 24.3321 17.2675 24.3681 17.1913C24.417 17.0983 24.4317 16.9417 24.554 16.9613C24.6764 16.9809 24.6861 17.1179 24.7204 17.2206C24.7613 17.3488 24.7827 17.4824 24.784 17.617C24.7896 18.0631 24.7684 18.5092 24.7204 18.9528L24.7302 18.9724Z" fill="white"/>
</svg>
