<svg width="26" height="29" viewBox="0 0 26 29" fill="none" xmlns="http://www.w3.org/2000/svg">
<path d="M25.8716 13.119C25.7232 12.0145 25.4375 10.9328 25.0209 9.89906C24.642 8.98143 24.0623 8.16035 23.3244 7.49612C22.9304 7.11443 22.4258 6.86714 21.8827 6.78966C21.181 6.69616 20.4671 6.78726 19.8113 7.05397C19.2624 6.32999 18.5766 5.72093 17.7929 5.26139C17.1421 4.87417 16.4164 4.63006 15.6639 4.54532C15.5428 4.53239 15.4225 4.51313 15.3034 4.48764C15.4812 4.23773 15.6543 3.97821 15.8369 3.7235C16.1383 3.30435 16.5031 2.93468 16.9182 2.62776C17.1395 2.46443 17.38 2.32886 17.6343 2.22407C17.8224 2.14286 18.0324 2.12762 18.2302 2.18082C18.3456 2.20966 18.3696 2.25771 18.2975 2.35382C18.1107 2.59032 17.969 2.85911 17.8794 3.14681C17.8334 3.29548 17.8186 3.45205 17.836 3.6067C17.8533 3.76135 17.9025 3.91074 17.9803 4.0455C18.0365 4.15972 18.1244 4.25533 18.2335 4.32095C18.3426 4.38657 18.4682 4.41941 18.5955 4.41555C18.7027 4.42275 18.8102 4.42275 18.9175 4.41555C19.0792 4.39588 19.2325 4.33213 19.3604 4.23127C19.4884 4.13041 19.5862 3.99632 19.6432 3.84365C19.7542 3.60194 19.7888 3.33211 19.7424 3.0702C19.696 2.80829 19.5709 2.56677 19.3836 2.37786C19.326 2.31539 19.2443 2.28174 19.2154 2.16159C19.5012 1.91537 19.8375 1.7349 20.2006 1.63294C20.2954 1.61215 20.3943 1.62053 20.4842 1.65698C20.6998 1.72639 20.9076 1.81821 21.1041 1.93092C21.4599 2.13148 21.7961 2.36477 22.1086 2.62776C22.1422 2.6566 22.1806 2.70466 22.2287 2.68064C22.2768 2.65661 22.2864 2.5797 22.2816 2.52203C22.2633 2.33671 22.1757 2.1651 22.0365 2.04145C21.8406 1.86387 21.6206 1.71501 21.3829 1.59931C21.1302 1.46375 20.8478 1.39275 20.5611 1.39265C19.9674 1.3768 19.3833 1.54464 18.8886 1.87324C18.7486 1.9708 18.5775 2.01355 18.408 1.99338C18.0303 1.96397 17.6505 2.01095 17.2914 2.1315C16.9322 2.25205 16.601 2.44371 16.3175 2.69505C15.8105 3.11787 15.3993 3.64374 15.1112 4.23774C15.0155 3.83404 14.9591 3.42201 14.943 3.00743C14.9319 2.3721 14.8579 1.73944 14.7219 1.11873C14.6901 0.953529 14.6402 0.792354 14.5729 0.638137C14.5451 0.528362 14.4956 0.425288 14.4272 0.335027C14.3588 0.244767 14.273 0.169159 14.1748 0.112685C14.0767 0.0562117 13.9682 0.0200231 13.8558 0.00626595C13.7434 -0.00749122 13.6293 0.00145767 13.5205 0.0325921C13.0399 0.0854568 12.5977 0.176769 12.1364 0.258469C12.0205 0.282945 11.9077 0.320015 11.8 0.369009C11.5837 0.465127 11.55 0.556438 11.6558 0.758284C11.7615 0.960131 11.7952 1.01299 11.8624 1.13794C12.0147 1.42323 12.1186 1.73179 12.17 2.05107C12.2356 2.43035 12.2485 2.81685 12.2085 3.19966C12.1768 3.43627 12.1237 3.66951 12.0499 3.89652C12.0149 4.00988 11.954 4.11354 11.872 4.19929C11.8888 4.06195 11.8757 3.9226 11.8336 3.79079C11.7024 3.33999 11.4517 2.93311 11.1079 2.61335C10.7911 2.32036 10.4196 2.09272 10.0147 1.94346C9.60977 1.7942 9.17941 1.72624 8.74822 1.74348C8.39998 1.74582 8.0557 1.81758 7.73552 1.95456C7.41535 2.09154 7.12571 2.291 6.88354 2.54126C6.84326 2.59126 6.79189 2.63119 6.7335 2.65789C6.67511 2.68458 6.6113 2.69731 6.54714 2.69505C5.97911 2.72267 5.43928 2.95086 5.02367 3.33904C4.95796 3.38457 4.90465 3.44577 4.86857 3.5171C4.83248 3.58843 4.81477 3.66764 4.81702 3.74754L5.01886 3.58414C5.39969 3.30311 5.81887 3.07814 6.26358 2.91612C6.38853 2.86806 6.50868 2.87767 6.52791 2.91612C6.54713 2.95457 6.50388 3.04587 6.47024 3.10835C6.4366 3.17083 6.41256 3.21408 6.38853 3.27175C6.30471 3.44304 6.25572 3.62927 6.24436 3.81963C6.23424 3.94843 6.25216 4.07788 6.29688 4.19909C6.34161 4.3203 6.41207 4.43038 6.50343 4.52173C6.59479 4.61309 6.70485 4.68356 6.82606 4.72828C6.94727 4.77301 7.07674 4.79092 7.20554 4.7808C7.34912 4.77598 7.49139 4.75173 7.62846 4.70872C7.80218 4.65633 7.951 4.5427 8.04733 4.38893C8.14366 4.23516 8.18096 4.05166 8.1523 3.87248C8.13532 3.72324 8.08824 3.579 8.01389 3.44848C7.93954 3.31796 7.83947 3.20388 7.71976 3.11316C7.63467 3.04573 7.54472 2.98469 7.45063 2.93054C7.38815 2.89209 7.36413 2.84883 7.41219 2.79116C7.73125 2.38075 8.18032 2.09097 8.68574 1.96936C8.77903 1.9478 8.876 1.9478 8.96929 1.96936C9.28564 2.03522 9.58708 2.15906 9.85838 2.33461C10.5463 2.77488 11.0568 3.44369 11.3001 4.22332C11.3338 4.30982 11.353 4.40114 11.3866 4.48284C10.9995 4.64874 10.5992 4.78216 10.19 4.88172C9.73823 4.99706 9.28648 5.10279 8.83472 5.22775C8.09843 5.42334 7.43946 5.83918 6.94602 6.41961C6.55623 6.35463 6.15836 6.35463 5.76857 6.41961C4.89838 6.55978 4.09364 6.96804 3.46657 7.58743C3.04312 7.99534 2.67767 8.45943 2.38043 8.96672C1.83941 9.8806 1.3918 10.8467 1.0444 11.8502C0.666577 12.9762 0.393087 14.1345 0.227394 15.3105C0.042507 16.4928 -0.0298962 17.69 0.0111384 18.8861C0.0399737 19.4483 0.0928272 20.0106 0.164915 20.5681C0.322691 21.7932 0.646034 22.9912 1.12609 24.1293C1.59127 25.2602 2.24087 26.306 3.04844 27.2242C3.32608 27.5365 3.6503 27.804 4.00962 28.0172C4.19845 28.1346 4.41018 28.2104 4.63064 28.2394C4.8511 28.2684 5.07521 28.25 5.28798 28.1854C5.89269 28.0136 6.42972 27.6595 6.82587 27.1714C7.05077 26.8736 7.24102 26.5511 7.39296 26.2102C7.4218 26.1477 7.43622 26.066 7.55156 26.0756C7.59481 26.1477 7.64767 26.2246 7.69092 26.3063C7.88316 26.6427 8.06578 26.9792 8.26282 27.306C8.51954 27.7401 8.86511 28.1152 9.27687 28.4065C9.51399 28.5837 9.7918 28.6986 10.0848 28.7406C10.3779 28.7826 10.6768 28.7503 10.9541 28.6468C11.6497 28.4324 12.2353 27.9571 12.5881 27.3204C12.641 27.2146 12.7035 27.1185 12.7852 26.9792L12.8957 27.2002C12.9966 27.4165 13.0831 27.6424 13.2033 27.849C13.3084 28.0355 13.4341 28.2096 13.5781 28.368C13.7076 28.5129 13.8795 28.6132 14.0694 28.6547C14.2593 28.6961 14.4573 28.6765 14.6354 28.5987C15.0997 28.4258 15.4992 28.1136 15.7792 27.7048C15.8753 27.5703 15.9474 27.4165 16.0339 27.2723C16.0628 27.2242 16.082 27.1618 16.1781 27.1714C16.2742 27.378 16.3703 27.5991 16.4857 27.8058C16.6086 28.047 16.7875 28.2554 17.0073 28.4134C17.2272 28.5714 17.4818 28.6745 17.7496 28.7141C18.1656 28.7848 18.5911 28.7766 19.004 28.69C19.7006 28.5285 20.3556 28.2223 20.9263 27.7913C21.6795 27.2391 22.3301 26.5592 22.8487 25.7825C23.467 24.8539 23.9934 23.8672 24.4202 22.8365C24.9493 21.5637 25.333 20.2353 25.564 18.8764C25.6793 18.2517 25.761 17.6221 25.8619 16.9973C25.9344 16.5198 25.9777 16.0383 25.9917 15.5556C26.019 14.7415 25.9788 13.9265 25.8716 13.119ZM18.7973 2.62297C18.988 2.84313 19.093 3.12465 19.093 3.41593C19.093 3.70722 18.988 3.98874 18.7973 4.2089C18.7036 4.14148 18.6263 4.0537 18.5714 3.95215C18.5165 3.8506 18.4853 3.73793 18.4801 3.62258C18.462 3.44314 18.4808 3.26187 18.5353 3.08996C18.5899 2.91805 18.679 2.75913 18.7973 2.62297ZM7.54194 4.03588C7.55458 4.13659 7.5377 4.23881 7.49334 4.3301C7.44897 4.42139 7.37904 4.49783 7.29204 4.55011C7.18976 4.47784 7.104 4.38467 7.04044 4.27676C6.97688 4.16886 6.93696 4.04868 6.92333 3.92418C6.9097 3.79969 6.92266 3.67372 6.96137 3.55462C7.00008 3.43552 7.06365 3.326 7.14787 3.23331C7.27026 3.32832 7.36936 3.44998 7.43765 3.58906C7.50594 3.72813 7.5416 3.88095 7.54194 4.03588ZM8.24841 13.441C8.4526 13.0755 8.72789 12.7545 9.05803 12.497C9.38818 12.2395 9.76651 12.0506 10.1708 11.9416C10.6263 11.8015 11.1151 11.8134 11.5633 11.9755C12.0115 12.1376 12.3949 12.4411 12.6554 12.8403C12.9761 13.3058 13.1865 13.8383 13.2706 14.3974C13.3241 14.6662 13.3467 14.9403 13.3378 15.2144C13.3402 16.008 13.1435 16.7895 12.7659 17.4875C12.3879 18.1892 11.7781 18.7378 11.0406 19.0398C10.6296 19.2313 10.1673 19.2833 9.72396 19.1879C9.28066 19.0925 8.88066 18.8549 8.58482 18.5112C8.19984 18.0963 7.92693 17.5902 7.79186 17.0406C7.61875 16.4411 7.56995 15.8126 7.64846 15.1937C7.72697 14.5747 7.93113 13.9782 8.24841 13.441ZM14.5874 15.6661C14.8497 15.1084 15.2984 14.6598 15.8561 14.3974C16.1061 14.2844 16.3669 14.1975 16.6347 14.1378C16.8344 14.0935 17.0415 14.0952 17.2405 14.1426C17.4395 14.1901 17.6251 14.2821 17.7833 14.4118C18.0984 14.6579 18.3327 14.9926 18.4561 15.373C18.6401 15.9004 18.7028 16.4624 18.6396 17.0174C18.5764 17.5724 18.3888 18.106 18.0908 18.5785C17.6981 19.2174 17.0812 19.6869 16.3607 19.8953C16.0924 19.9882 15.8022 19.9975 15.5285 19.922C15.2548 19.8464 15.0104 19.6897 14.8277 19.4724C14.5833 19.206 14.4069 18.8845 14.3134 18.5352C14.207 18.1931 14.1551 17.8362 14.1596 17.4779C14.1664 16.8498 14.3124 16.2309 14.5874 15.6661ZM23.3437 15.0269C23.2456 16.5449 23.0335 18.0534 22.7093 19.5396C22.5478 20.2283 22.3325 20.9032 22.0653 21.5581C21.612 22.7401 20.8173 23.7605 19.7825 24.4897L19.6095 24.6002C19.5134 24.5522 19.5422 24.4753 19.5278 24.4128C19.4862 24.1037 19.4203 23.7984 19.3308 23.4997C19.2724 23.3286 19.1899 23.1668 19.0857 23.0191C19.0515 22.9703 19.0051 22.9313 18.9511 22.906C18.8971 22.8807 18.8375 22.87 18.7781 22.8749C18.6087 22.8727 18.4424 22.9209 18.3004 23.0133C18.1583 23.1057 18.0469 23.2382 17.9803 23.394C17.9064 23.5702 17.8516 23.7539 17.8169 23.9418C17.7409 24.3294 17.6864 24.7209 17.6535 25.1145C17.6535 25.3452 17.6007 25.3788 17.3748 25.398C16.279 25.5037 15.1833 25.6047 14.0827 25.6143C13.6839 25.6143 13.2898 25.6143 12.8957 25.6143C12.0306 25.6143 11.1704 25.5566 10.3101 25.5037C9.39016 25.4398 8.47616 25.3081 7.57559 25.1097C7.095 25.0087 7.15747 25.1097 7.16708 24.5858C7.16708 24.2782 7.20073 23.9659 7.20554 23.6535C7.20567 23.4748 7.1912 23.2964 7.16229 23.12C7.12384 22.9134 7.0133 22.8461 6.79704 22.8557C6.65293 22.865 6.51314 22.9086 6.38938 22.9831C6.26563 23.0575 6.16151 23.1605 6.08576 23.2834C6.00783 23.4032 5.94183 23.5304 5.88872 23.6631C5.78779 23.8938 5.7061 24.1437 5.60998 24.3648C5.57154 24.4705 5.52828 24.4945 5.42255 24.4657C5.32777 24.4493 5.23564 24.4202 5.14862 24.3792C4.91314 24.2638 4.66803 24.1485 4.44695 24.0139C4.23526 23.8775 4.05372 23.6993 3.91351 23.4901C3.66649 23.1353 3.46469 22.751 3.31277 22.3463C2.93312 21.3159 2.66565 20.2477 2.515 19.16C2.37169 18.1269 2.32663 17.0826 2.38043 16.041C2.40815 15.047 2.54514 14.059 2.78894 13.095C2.81296 13.0181 2.837 12.9364 2.86583 12.8547C2.9047 12.7538 2.96968 12.665 3.05412 12.5974C3.13856 12.5299 3.23943 12.486 3.34642 12.4702C3.36377 12.4641 3.38215 12.4616 3.40049 12.4627C3.41884 12.4637 3.43679 12.4684 3.45332 12.4765C3.46985 12.4845 3.48462 12.4957 3.49679 12.5095C3.50896 12.5233 3.51829 12.5393 3.52423 12.5567C3.59868 12.7464 3.64717 12.9452 3.6684 13.1478C3.74049 13.6284 3.80297 14.109 3.88947 14.5896C4.1337 16.1883 4.59282 17.7467 5.25435 19.2225C5.48479 19.7371 5.76485 20.228 6.09057 20.6883C6.15785 20.7748 6.22033 20.8613 6.28761 20.943C6.93641 21.6735 6.99888 21.6398 7.8303 21.808C8.40609 21.9232 8.98888 22.0003 9.57483 22.0387L9.75265 22.0627C9.80029 22.0614 9.84656 22.0788 9.88158 22.1111C9.9166 22.1434 9.93759 22.1882 9.94008 22.2358C10.0192 22.6709 10.135 23.0985 10.2861 23.5141C10.3438 23.6789 10.4128 23.8395 10.4928 23.9947C10.661 24.3119 10.834 24.3647 11.1752 24.2542C11.3126 24.2113 11.4381 24.1367 11.5416 24.0366C11.6451 23.9364 11.7237 23.8135 11.7711 23.6775C11.8811 23.3654 11.9616 23.0436 12.0114 22.7163C12.0114 22.5626 12.0595 22.4088 12.0883 22.2358C12.0917 22.2124 12.1031 22.1909 12.1207 22.1751C12.1383 22.1593 12.1608 22.1501 12.1844 22.1492C12.3695 22.1258 12.5568 22.1258 12.7419 22.1492C12.7419 22.3511 12.7804 22.5529 12.7948 22.7548C12.8279 23.1727 12.9019 23.5864 13.0158 23.9899C13.0546 24.1532 13.1321 24.3049 13.2417 24.432C13.2789 24.4796 13.3292 24.5154 13.3863 24.535C13.4435 24.5546 13.5051 24.5573 13.5637 24.5426C13.836 24.4917 14.0794 24.3408 14.2461 24.1197C14.446 23.8207 14.6075 23.4978 14.7267 23.1585C14.8421 22.8557 14.9622 22.5577 15.0583 22.2502C15.0688 22.1857 15.1024 22.1272 15.1528 22.0856C15.2032 22.0441 15.267 22.0223 15.3323 22.0243C15.8417 21.9858 16.3511 21.9138 16.8605 21.8273C17.7594 21.6588 18.6216 21.3334 19.4077 20.8661C19.5686 20.7619 19.7129 20.6339 19.8354 20.4864C20.5213 19.7469 21.0611 18.8843 21.4261 17.9441C21.8304 16.9196 22.1612 15.8677 22.4161 14.7963C22.4546 14.6473 22.5026 14.4983 22.5363 14.3493C22.5498 14.2843 22.5821 14.2247 22.629 14.1777C22.676 14.1308 22.7356 14.0985 22.8006 14.085C22.8335 14.0716 22.8672 14.0604 22.9015 14.0513C23.2668 13.9937 23.3148 14.0081 23.3389 14.3637C23.3631 14.5841 23.3647 14.8063 23.3437 15.0269Z" fill="white"/>
</svg>
